# xmcd
#
# Track frame offsets:
#	150
#	14411
#	28958
#	43619
#	59807
#	71331
#	84422
#	98154
#	110275
#	125258
#	138419
#	148552
#	162808
#	172805
#	188684
#	200207
#	212345
#	224148
#
# Disc length: 3168 seconds
#
# Revision: 0
# Processed by: cddbd v1.5.2PL0 Copyright (c) Steve Scherf et al.
# Submitted via: EasyCDDAExtractor 16.0.6.1
#
DISCID=070c5e12
DTITLE=Συλλογικός δίσκος - Τα 45άρια 1.3
DYEAR=1999
DGENRE=Λαϊκή
TTITLE0=Διονυσίου Στράτος - Γιατί καλέ γειτόνισσα
TTITLE1=Γαβαλάς Πάνος - Φεύγω γεια σου, γεια σου
TTITLE2=Λίντα Μαίρη - Θλίψη
TTITLE3=Καζαντζίδης Στέλιος - Μέσα στο έρημο σπιτάκι
TTITLE4=Διονυσίου Στράτος - Έχω καρδιά μποέμισσα
TTITLE5=Λύδια Γιώτα - Τα χαμένα όνειρα
TTITLE6=Ζαγοραίος Σπύρος - Μιά πεντάμορφη τσιγγάνα
TTITLE7=Τσαουσάκης Πρόδρομος - Θα τραβήξω τα ποτήρια
TTITLE8=Μαρκάκης Μπάμπης - Μεγάλη θλίψη
TTITLE9=Αγγελόπουλος Μανώλης - Έχεις άνδρα μάλαμα
TTITLE10=Μαράντη Μαίρη - Τράβα φίλε στο καλό
TTITLE11=Παπαδάκης Μάνος - Μιά δεκάρα (Δεν αξίζει η αγάπη σου)
TTITLE12=Μενιδιάτης Μιχάλης - Όλοι ζηλεύουν
TTITLE13=Ζαγοραίος Σπύρος - Οργή Θεού
TTITLE14=Τσαουσάκης Πρόδρομος - Φταίνε τα μάτια μιάς μικρής
TTITLE15=Ευσταθίου Δημήτρης - Οι γιεγιέδες
TTITLE16=Αναγνωστάκης Πέτρος - Δέκα συμβουλές
TTITLE17=Μαρκάκης Μπάμπης - Μπάϊ μπάϊ μάϊ ντάρλινγκ (Μ' έκανες να σ' αγαπήσω)
EXTD=
EXTT0=
EXTT1=
EXTT2=
EXTT3=
EXTT4=
EXTT5=
EXTT6=
EXTT7=
EXTT8=
EXTT9=
EXTT10=
EXTT11=
EXTT12=
EXTT13=
EXTT14=
EXTT15=
EXTT16=
EXTT17=
PLAYORDER=
